<mxfile host="app.diagrams.net" agent="Mozilla/5.0 (Windows NT 10.0; Win64; x64) AppleWebKit/537.36 (KHTML, like Gecko) Chrome/136.0.0.0 Safari/537.36" version="27.0.4">
  <diagram name="Página-1" id="KtqO_DASaNcsyG8CtPEL">
    <mxGraphModel dx="2062" dy="1136" grid="1" gridSize="10" guides="1" tooltips="1" connect="1" arrows="1" fold="1" page="1" pageScale="1" pageWidth="827" pageHeight="1169" math="0" shadow="0">
      <root>
        <mxCell id="0" />
        <mxCell id="1" parent="0" />
        <mxCell id="TBLlkOP_qlh_QUMRTp9g-1" value="Cliente" style="swimlane;fontStyle=1;align=center;verticalAlign=top;childLayout=stackLayout;horizontal=1;startSize=26;horizontalStack=0;resizeParent=1;resizeParentMax=0;resizeLast=0;collapsible=1;marginBottom=0;whiteSpace=wrap;html=1;" parent="1" vertex="1">
          <mxGeometry x="130" y="60" width="180" height="178" as="geometry" />
        </mxCell>
        <mxCell id="TBLlkOP_qlh_QUMRTp9g-2" value="&lt;div&gt;- nombreCompleto: String&lt;/div&gt;&lt;div&gt;- direccionFacturacion: String&lt;/div&gt;&lt;div&gt;&lt;span style=&quot;background-color: transparent; color: light-dark(rgb(0, 0, 0), rgb(255, 255, 255));&quot;&gt;- telefono: String&lt;/span&gt;&lt;/div&gt;&lt;div&gt;- edad: int&lt;/div&gt;&lt;div&gt;&lt;span style=&quot;background-color: transparent; color: light-dark(rgb(0, 0, 0), rgb(255, 255, 255));&quot;&gt;- dniPasaporte: String&lt;/span&gt;&lt;/div&gt;&lt;div&gt;- nacionalidad: String&lt;br&gt;&lt;/div&gt;" style="text;strokeColor=none;fillColor=none;align=left;verticalAlign=top;spacingLeft=4;spacingRight=4;overflow=hidden;rotatable=0;points=[[0,0.5],[1,0.5]];portConstraint=eastwest;whiteSpace=wrap;html=1;" parent="TBLlkOP_qlh_QUMRTp9g-1" vertex="1">
          <mxGeometry y="26" width="180" height="94" as="geometry" />
        </mxCell>
        <mxCell id="TBLlkOP_qlh_QUMRTp9g-3" value="" style="line;strokeWidth=1;fillColor=none;align=left;verticalAlign=middle;spacingTop=-1;spacingLeft=3;spacingRight=3;rotatable=0;labelPosition=right;points=[];portConstraint=eastwest;strokeColor=inherit;" parent="TBLlkOP_qlh_QUMRTp9g-1" vertex="1">
          <mxGeometry y="120" width="180" height="8" as="geometry" />
        </mxCell>
        <mxCell id="TBLlkOP_qlh_QUMRTp9g-4" value="&lt;div&gt;+ registrar()&lt;/div&gt;&lt;div&gt;+ consultarExpedientes()&lt;/div&gt;" style="text;strokeColor=none;fillColor=none;align=left;verticalAlign=top;spacingLeft=4;spacingRight=4;overflow=hidden;rotatable=0;points=[[0,0.5],[1,0.5]];portConstraint=eastwest;whiteSpace=wrap;html=1;" parent="TBLlkOP_qlh_QUMRTp9g-1" vertex="1">
          <mxGeometry y="128" width="180" height="50" as="geometry" />
        </mxCell>
        <mxCell id="oR6sBdIMDXWxFU_tY8Ch-1" value="Carrito" style="swimlane;fontStyle=1;align=center;verticalAlign=top;childLayout=stackLayout;horizontal=1;startSize=26;horizontalStack=0;resizeParent=1;resizeParentMax=0;resizeLast=0;collapsible=1;marginBottom=0;whiteSpace=wrap;html=1;" parent="1" vertex="1">
          <mxGeometry x="400" y="60" width="210" height="130" as="geometry" />
        </mxCell>
        <mxCell id="oR6sBdIMDXWxFU_tY8Ch-2" value="&lt;div&gt;-- productos: List&amp;lt;ProductoTuristico&amp;gt;&lt;/div&gt;" style="text;strokeColor=none;fillColor=none;align=left;verticalAlign=top;spacingLeft=4;spacingRight=4;overflow=hidden;rotatable=0;points=[[0,0.5],[1,0.5]];portConstraint=eastwest;whiteSpace=wrap;html=1;" parent="oR6sBdIMDXWxFU_tY8Ch-1" vertex="1">
          <mxGeometry y="26" width="210" height="24" as="geometry" />
        </mxCell>
        <mxCell id="oR6sBdIMDXWxFU_tY8Ch-3" value="" style="line;strokeWidth=1;fillColor=none;align=left;verticalAlign=middle;spacingTop=-1;spacingLeft=3;spacingRight=3;rotatable=0;labelPosition=right;points=[];portConstraint=eastwest;strokeColor=inherit;" parent="oR6sBdIMDXWxFU_tY8Ch-1" vertex="1">
          <mxGeometry y="50" width="210" height="8" as="geometry" />
        </mxCell>
        <mxCell id="oR6sBdIMDXWxFU_tY8Ch-4" value="&lt;div&gt;+ añadirProducto()&lt;/div&gt;&lt;div&gt;+ eliminarProducto()&lt;/div&gt;&lt;div&gt;+ confirmarDisponibilidad()&lt;/div&gt;&lt;div&gt;+ convertirAExpediente()&lt;/div&gt;" style="text;strokeColor=none;fillColor=none;align=left;verticalAlign=top;spacingLeft=4;spacingRight=4;overflow=hidden;rotatable=0;points=[[0,0.5],[1,0.5]];portConstraint=eastwest;whiteSpace=wrap;html=1;" parent="oR6sBdIMDXWxFU_tY8Ch-1" vertex="1">
          <mxGeometry y="58" width="210" height="72" as="geometry" />
        </mxCell>
        <mxCell id="oR6sBdIMDXWxFU_tY8Ch-6" value="Expediente" style="swimlane;fontStyle=1;align=center;verticalAlign=top;childLayout=stackLayout;horizontal=1;startSize=26;horizontalStack=0;resizeParent=1;resizeParentMax=0;resizeLast=0;collapsible=1;marginBottom=0;whiteSpace=wrap;html=1;" parent="1" vertex="1">
          <mxGeometry x="130" y="290" width="180" height="160" as="geometry" />
        </mxCell>
        <mxCell id="oR6sBdIMDXWxFU_tY8Ch-7" value="&lt;div&gt;&lt;div&gt;- numero: String&lt;/div&gt;&lt;div&gt;- fechaReserva: Date&lt;/div&gt;&lt;div&gt;- precioTotal: double&lt;/div&gt;&lt;div&gt;- estado: EstadoExpediente&lt;/div&gt;&lt;/div&gt;" style="text;strokeColor=none;fillColor=none;align=left;verticalAlign=top;spacingLeft=4;spacingRight=4;overflow=hidden;rotatable=0;points=[[0,0.5],[1,0.5]];portConstraint=eastwest;whiteSpace=wrap;html=1;" parent="oR6sBdIMDXWxFU_tY8Ch-6" vertex="1">
          <mxGeometry y="26" width="180" height="64" as="geometry" />
        </mxCell>
        <mxCell id="oR6sBdIMDXWxFU_tY8Ch-8" value="" style="line;strokeWidth=1;fillColor=none;align=left;verticalAlign=middle;spacingTop=-1;spacingLeft=3;spacingRight=3;rotatable=0;labelPosition=right;points=[];portConstraint=eastwest;strokeColor=inherit;" parent="oR6sBdIMDXWxFU_tY8Ch-6" vertex="1">
          <mxGeometry y="90" width="180" height="8" as="geometry" />
        </mxCell>
        <mxCell id="oR6sBdIMDXWxFU_tY8Ch-9" value="&lt;div&gt;+ confirmar()&lt;/div&gt;&lt;div&gt;+ cancelar()&lt;/div&gt;&lt;div&gt;+ calcularTotal()&lt;/div&gt;" style="text;strokeColor=none;fillColor=none;align=left;verticalAlign=top;spacingLeft=4;spacingRight=4;overflow=hidden;rotatable=0;points=[[0,0.5],[1,0.5]];portConstraint=eastwest;whiteSpace=wrap;html=1;" parent="oR6sBdIMDXWxFU_tY8Ch-6" vertex="1">
          <mxGeometry y="98" width="180" height="62" as="geometry" />
        </mxCell>
        <mxCell id="oR6sBdIMDXWxFU_tY8Ch-10" value="ProductoTurístico" style="swimlane;fontStyle=1;align=center;verticalAlign=top;childLayout=stackLayout;horizontal=1;startSize=26;horizontalStack=0;resizeParent=1;resizeParentMax=0;resizeLast=0;collapsible=1;marginBottom=0;whiteSpace=wrap;html=1;" parent="1" vertex="1">
          <mxGeometry x="400" y="290" width="180" height="120" as="geometry" />
        </mxCell>
        <mxCell id="oR6sBdIMDXWxFU_tY8Ch-11" value="&lt;div&gt;&lt;div&gt;- precio: double&lt;/div&gt;&lt;div&gt;- fechaInicio: Date&lt;/div&gt;&lt;div&gt;- fechaFin: Date&lt;/div&gt;&lt;/div&gt;" style="text;strokeColor=none;fillColor=none;align=left;verticalAlign=top;spacingLeft=4;spacingRight=4;overflow=hidden;rotatable=0;points=[[0,0.5],[1,0.5]];portConstraint=eastwest;whiteSpace=wrap;html=1;" parent="oR6sBdIMDXWxFU_tY8Ch-10" vertex="1">
          <mxGeometry y="26" width="180" height="54" as="geometry" />
        </mxCell>
        <mxCell id="oR6sBdIMDXWxFU_tY8Ch-12" value="" style="line;strokeWidth=1;fillColor=none;align=left;verticalAlign=middle;spacingTop=-1;spacingLeft=3;spacingRight=3;rotatable=0;labelPosition=right;points=[];portConstraint=eastwest;strokeColor=inherit;" parent="oR6sBdIMDXWxFU_tY8Ch-10" vertex="1">
          <mxGeometry y="80" width="180" height="8" as="geometry" />
        </mxCell>
        <mxCell id="oR6sBdIMDXWxFU_tY8Ch-13" value="+ calcularPrecio()" style="text;strokeColor=none;fillColor=none;align=left;verticalAlign=top;spacingLeft=4;spacingRight=4;overflow=hidden;rotatable=0;points=[[0,0.5],[1,0.5]];portConstraint=eastwest;whiteSpace=wrap;html=1;" parent="oR6sBdIMDXWxFU_tY8Ch-10" vertex="1">
          <mxGeometry y="88" width="180" height="32" as="geometry" />
        </mxCell>
        <mxCell id="i-lt0F7ig2W6C5ULB9Se-1" value="&lt;b style=&quot;text-align: left;&quot;&gt;Vuelo&lt;/b&gt;" style="swimlane;fontStyle=0;childLayout=stackLayout;horizontal=1;startSize=26;fillColor=none;horizontalStack=0;resizeParent=1;resizeParentMax=0;resizeLast=0;collapsible=1;marginBottom=0;whiteSpace=wrap;html=1;" vertex="1" parent="1">
          <mxGeometry x="130" y="540" width="160" height="100" as="geometry" />
        </mxCell>
        <mxCell id="i-lt0F7ig2W6C5ULB9Se-2" value="&lt;div&gt;- lineaAerea: String&lt;/div&gt;&lt;div&gt;- aeropuertoSalida: String&lt;/div&gt;&lt;div&gt;&lt;span style=&quot;background-color: transparent; color: light-dark(rgb(0, 0, 0), rgb(255, 255, 255));&quot;&gt;- aeropuertoLlegada: String&lt;/span&gt;&lt;/div&gt;&lt;div&gt;- numeroAsiento: String&lt;/div&gt;" style="text;strokeColor=none;fillColor=none;align=left;verticalAlign=top;spacingLeft=4;spacingRight=4;overflow=hidden;rotatable=0;points=[[0,0.5],[1,0.5]];portConstraint=eastwest;whiteSpace=wrap;html=1;" vertex="1" parent="i-lt0F7ig2W6C5ULB9Se-1">
          <mxGeometry y="26" width="160" height="74" as="geometry" />
        </mxCell>
        <mxCell id="i-lt0F7ig2W6C5ULB9Se-5" value="&lt;div style=&quot;text-align: left;&quot;&gt;&lt;span style=&quot;background-color: transparent;&quot;&gt;&lt;b&gt;Hotel&lt;/b&gt;&lt;/span&gt;&lt;/div&gt;" style="swimlane;fontStyle=0;childLayout=stackLayout;horizontal=1;startSize=26;fillColor=none;horizontalStack=0;resizeParent=1;resizeParentMax=0;resizeLast=0;collapsible=1;marginBottom=0;whiteSpace=wrap;html=1;" vertex="1" parent="1">
          <mxGeometry x="370" y="540" width="160" height="90" as="geometry" />
        </mxCell>
        <mxCell id="i-lt0F7ig2W6C5ULB9Se-6" value="&lt;div&gt;- nombre: String&lt;/div&gt;&lt;div&gt;- categoria: int&lt;/div&gt;&lt;div&gt;- tipoAlojamiento: String&lt;/div&gt;" style="text;strokeColor=none;fillColor=none;align=left;verticalAlign=top;spacingLeft=4;spacingRight=4;overflow=hidden;rotatable=0;points=[[0,0.5],[1,0.5]];portConstraint=eastwest;whiteSpace=wrap;html=1;" vertex="1" parent="i-lt0F7ig2W6C5ULB9Se-5">
          <mxGeometry y="26" width="160" height="64" as="geometry" />
        </mxCell>
        <mxCell id="i-lt0F7ig2W6C5ULB9Se-7" value="&lt;div style=&quot;text-align: left;&quot;&gt;&lt;b&gt;Traslado&lt;/b&gt;&lt;/div&gt;" style="swimlane;fontStyle=0;childLayout=stackLayout;horizontal=1;startSize=26;fillColor=none;horizontalStack=0;resizeParent=1;resizeParentMax=0;resizeLast=0;collapsible=1;marginBottom=0;whiteSpace=wrap;html=1;" vertex="1" parent="1">
          <mxGeometry x="130" y="680" width="160" height="90" as="geometry" />
        </mxCell>
        <mxCell id="i-lt0F7ig2W6C5ULB9Se-8" value="&lt;div&gt;- nombre: String&lt;/div&gt;&lt;div&gt;- categoria: int&lt;/div&gt;&lt;div&gt;- tipoAlojamiento: String&lt;/div&gt;" style="text;strokeColor=none;fillColor=none;align=left;verticalAlign=top;spacingLeft=4;spacingRight=4;overflow=hidden;rotatable=0;points=[[0,0.5],[1,0.5]];portConstraint=eastwest;whiteSpace=wrap;html=1;" vertex="1" parent="i-lt0F7ig2W6C5ULB9Se-7">
          <mxGeometry y="26" width="160" height="64" as="geometry" />
        </mxCell>
        <mxCell id="i-lt0F7ig2W6C5ULB9Se-9" value="&lt;div style=&quot;text-align: left;&quot;&gt;&lt;b&gt;Actividad&lt;/b&gt;&lt;/div&gt;" style="swimlane;fontStyle=0;childLayout=stackLayout;horizontal=1;startSize=26;fillColor=none;horizontalStack=0;resizeParent=1;resizeParentMax=0;resizeLast=0;collapsible=1;marginBottom=0;whiteSpace=wrap;html=1;" vertex="1" parent="1">
          <mxGeometry x="360" y="680" width="160" height="90" as="geometry" />
        </mxCell>
        <mxCell id="i-lt0F7ig2W6C5ULB9Se-10" value="&lt;div&gt;- ubicacion: String&lt;/div&gt;&lt;div&gt;- edadMinima: int&lt;/div&gt;&lt;div&gt;- asientoNumerado: String&lt;/div&gt;" style="text;strokeColor=none;fillColor=none;align=left;verticalAlign=top;spacingLeft=4;spacingRight=4;overflow=hidden;rotatable=0;points=[[0,0.5],[1,0.5]];portConstraint=eastwest;whiteSpace=wrap;html=1;" vertex="1" parent="i-lt0F7ig2W6C5ULB9Se-9">
          <mxGeometry y="26" width="160" height="64" as="geometry" />
        </mxCell>
        <mxCell id="i-lt0F7ig2W6C5ULB9Se-11" value="&lt;div style=&quot;text-align: left;&quot;&gt;&lt;b&gt;Seguro&lt;/b&gt;&lt;/div&gt;" style="swimlane;fontStyle=0;childLayout=stackLayout;horizontal=1;startSize=26;fillColor=none;horizontalStack=0;resizeParent=1;resizeParentMax=0;resizeLast=0;collapsible=1;marginBottom=0;whiteSpace=wrap;html=1;" vertex="1" parent="1">
          <mxGeometry x="590" y="540" width="160" height="70" as="geometry" />
        </mxCell>
        <mxCell id="i-lt0F7ig2W6C5ULB9Se-12" value="&lt;div&gt;- compañia: String&lt;/div&gt;&lt;div&gt;- tipoPoliza: String&lt;/div&gt;" style="text;strokeColor=none;fillColor=none;align=left;verticalAlign=top;spacingLeft=4;spacingRight=4;overflow=hidden;rotatable=0;points=[[0,0.5],[1,0.5]];portConstraint=eastwest;whiteSpace=wrap;html=1;" vertex="1" parent="i-lt0F7ig2W6C5ULB9Se-11">
          <mxGeometry y="26" width="160" height="44" as="geometry" />
        </mxCell>
        <mxCell id="i-lt0F7ig2W6C5ULB9Se-13" value="&lt;div style=&quot;text-align: left;&quot;&gt;EstadoExpediente&amp;nbsp;&lt;/div&gt;" style="swimlane;fontStyle=0;childLayout=stackLayout;horizontal=1;startSize=26;fillColor=none;horizontalStack=0;resizeParent=1;resizeParentMax=0;resizeLast=0;collapsible=1;marginBottom=0;whiteSpace=wrap;html=1;" vertex="1" parent="1">
          <mxGeometry x="130" y="820" width="160" height="100" as="geometry" />
        </mxCell>
        <mxCell id="i-lt0F7ig2W6C5ULB9Se-14" value="&lt;div&gt;CONFIRMADA&lt;/div&gt;&lt;div&gt;CANCELADA&lt;/div&gt;&lt;div&gt;CONSUMIDA&lt;/div&gt;&lt;div&gt;RECLAMADA&lt;/div&gt;" style="text;strokeColor=none;fillColor=none;align=left;verticalAlign=top;spacingLeft=4;spacingRight=4;overflow=hidden;rotatable=0;points=[[0,0.5],[1,0.5]];portConstraint=eastwest;whiteSpace=wrap;html=1;" vertex="1" parent="i-lt0F7ig2W6C5ULB9Se-13">
          <mxGeometry y="26" width="160" height="74" as="geometry" />
        </mxCell>
        <mxCell id="i-lt0F7ig2W6C5ULB9Se-20" value="&lt;div style=&quot;text-align: left;&quot;&gt;TipoTraslado&lt;/div&gt;" style="swimlane;fontStyle=0;childLayout=stackLayout;horizontal=1;startSize=26;fillColor=none;horizontalStack=0;resizeParent=1;resizeParentMax=0;resizeLast=0;collapsible=1;marginBottom=0;whiteSpace=wrap;html=1;" vertex="1" parent="1">
          <mxGeometry x="310" y="820" width="160" height="70" as="geometry" />
        </mxCell>
        <mxCell id="i-lt0F7ig2W6C5ULB9Se-21" value="&lt;div&gt;PRIVADO&lt;/div&gt;&lt;div&gt;COMPARTIDO&lt;/div&gt;" style="text;strokeColor=none;fillColor=none;align=left;verticalAlign=top;spacingLeft=4;spacingRight=4;overflow=hidden;rotatable=0;points=[[0,0.5],[1,0.5]];portConstraint=eastwest;whiteSpace=wrap;html=1;" vertex="1" parent="i-lt0F7ig2W6C5ULB9Se-20">
          <mxGeometry y="26" width="160" height="44" as="geometry" />
        </mxCell>
        <mxCell id="i-lt0F7ig2W6C5ULB9Se-22" value="&lt;div style=&quot;text-align: left;&quot;&gt;PasarelaPago&lt;/div&gt;" style="swimlane;fontStyle=0;childLayout=stackLayout;horizontal=1;startSize=26;fillColor=none;horizontalStack=0;resizeParent=1;resizeParentMax=0;resizeLast=0;collapsible=1;marginBottom=0;whiteSpace=wrap;html=1;" vertex="1" parent="1">
          <mxGeometry x="560" y="860" width="160" height="60" as="geometry" />
        </mxCell>
        <mxCell id="i-lt0F7ig2W6C5ULB9Se-23" value="+ procesarPago()" style="text;strokeColor=none;fillColor=none;align=left;verticalAlign=top;spacingLeft=4;spacingRight=4;overflow=hidden;rotatable=0;points=[[0,0.5],[1,0.5]];portConstraint=eastwest;whiteSpace=wrap;html=1;" vertex="1" parent="i-lt0F7ig2W6C5ULB9Se-22">
          <mxGeometry y="26" width="160" height="34" as="geometry" />
        </mxCell>
        <mxCell id="i-lt0F7ig2W6C5ULB9Se-24" value="&lt;div style=&quot;text-align: left;&quot;&gt;SistemaSegurosExterno&lt;/div&gt;" style="swimlane;fontStyle=0;childLayout=stackLayout;horizontal=1;startSize=26;fillColor=none;horizontalStack=0;resizeParent=1;resizeParentMax=0;resizeLast=0;collapsible=1;marginBottom=0;whiteSpace=wrap;html=1;" vertex="1" parent="1">
          <mxGeometry x="560" y="760" width="160" height="60" as="geometry" />
        </mxCell>
        <mxCell id="i-lt0F7ig2W6C5ULB9Se-25" value="+ solicitarPresupuestos()" style="text;strokeColor=none;fillColor=none;align=left;verticalAlign=top;spacingLeft=4;spacingRight=4;overflow=hidden;rotatable=0;points=[[0,0.5],[1,0.5]];portConstraint=eastwest;whiteSpace=wrap;html=1;" vertex="1" parent="i-lt0F7ig2W6C5ULB9Se-24">
          <mxGeometry y="26" width="160" height="34" as="geometry" />
        </mxCell>
        <mxCell id="i-lt0F7ig2W6C5ULB9Se-26" value="&lt;div&gt;&lt;b&gt;&amp;nbsp; ProductoTuristico &lt;/b&gt;es abstracta:&lt;/div&gt;&lt;div&gt;&amp;nbsp; Nunca se usa directamente,&amp;nbsp;&lt;span style=&quot;background-color: transparent; color: light-dark(rgb(0, 0, 0), rgb(255, 255, 255));&quot;&gt;solo sus&amp;nbsp; &amp;nbsp; tipos concretos&amp;nbsp;&lt;/span&gt;&lt;span style=&quot;background-color: transparent; color: light-dark(rgb(0, 0, 0), rgb(255, 255, 255));&quot;&gt;(Vuelo, Hotel, etc.)&lt;/span&gt;&lt;/div&gt;" style="shape=callout;whiteSpace=wrap;html=1;perimeter=calloutPerimeter;align=left;" vertex="1" parent="1">
          <mxGeometry x="330" y="990" width="210" height="90" as="geometry" />
        </mxCell>
        <mxCell id="i-lt0F7ig2W6C5ULB9Se-27" value="&lt;div&gt;&amp;nbsp; Los seguros vienen de un&amp;nbsp;&lt;span style=&quot;background-color: transparent; color: light-dark(rgb(0, 0, 0), rgb(255, 255, 255));&quot;&gt;sistema&amp;nbsp; &amp;nbsp; &amp;nbsp; &amp;nbsp; &amp;nbsp; &amp;nbsp; &amp;nbsp; externo, no se&amp;nbsp;&lt;/span&gt;&lt;span style=&quot;background-color: transparent; color: light-dark(rgb(0, 0, 0), rgb(255, 255, 255));&quot;&gt;almacenan en nuestra&amp;nbsp; &amp;nbsp; &amp;nbsp; &amp;nbsp; BD&lt;/span&gt;&lt;/div&gt;" style="shape=callout;whiteSpace=wrap;html=1;perimeter=calloutPerimeter;align=left;" vertex="1" parent="1">
          <mxGeometry x="70" y="980" width="230" height="90" as="geometry" />
        </mxCell>
        <mxCell id="i-lt0F7ig2W6C5ULB9Se-28" value="&lt;div&gt;&lt;b&gt;&amp;nbsp; Pre-reserva:&amp;nbsp;&lt;/b&gt;&lt;span style=&quot;background-color: transparent; color: light-dark(rgb(0, 0, 0), rgb(255, 255, 255));&quot;&gt;Bloquea productos&amp;nbsp; &amp;nbsp; &amp;nbsp; &amp;nbsp; &amp;nbsp; &amp;nbsp; &amp;nbsp; &amp;nbsp; &amp;nbsp; &amp;nbsp; temporalmente&amp;nbsp;&lt;/span&gt;&lt;span style=&quot;background-color: transparent; color: light-dark(rgb(0, 0, 0), rgb(255, 255, 255));&quot;&gt;(máximo 72 horas)&lt;/span&gt;&lt;/div&gt;&lt;div&gt;&amp;nbsp; Se convierte en Expediente&amp;nbsp;&lt;span style=&quot;background-color: transparent; color: light-dark(rgb(0, 0, 0), rgb(255, 255, 255));&quot;&gt;al confirmar&lt;/span&gt;&lt;/div&gt;" style="shape=callout;whiteSpace=wrap;html=1;perimeter=calloutPerimeter;align=left;" vertex="1" parent="1">
          <mxGeometry x="590" y="990" width="240" height="90" as="geometry" />
        </mxCell>
      </root>
    </mxGraphModel>
  </diagram>
</mxfile>
